<?xml version="1.0" encoding="UTF-8"?>
<svg xmlns="http://www.w3.org/2000/svg" xmlns:xlink="http://www.w3.org/1999/xlink" width="1024px" height="1024px" viewBox="0 0 1024 1024" version="1.1">
<g id="surface1">
<path style=" stroke:none;fill-rule:nonzero;fill:rgb(44.705883%,53.725493%,85.490197%);fill-opacity:1;" d="M 141.140625 -0.269531 C 143.089844 -0.277344 143.089844 -0.277344 145.078125 -0.28125 C 149.4375 -0.296875 153.796875 -0.296875 158.15625 -0.292969 C 161.3125 -0.300781 164.46875 -0.308594 167.621094 -0.316406 C 176.296875 -0.335938 184.972656 -0.34375 193.648438 -0.347656 C 203.003906 -0.355469 212.359375 -0.375 221.71875 -0.394531 C 244.316406 -0.433594 266.914062 -0.453125 289.515625 -0.472656 C 300.160156 -0.480469 310.808594 -0.492188 321.457031 -0.5 C 356.863281 -0.535156 392.265625 -0.5625 427.671875 -0.578125 C 436.859375 -0.582031 446.042969 -0.585938 455.230469 -0.589844 C 457.515625 -0.589844 459.796875 -0.59375 462.152344 -0.59375 C 499.117188 -0.609375 536.085938 -0.660156 573.054688 -0.726562 C 611.023438 -0.792969 648.996094 -0.828125 686.964844 -0.835938 C 708.277344 -0.839844 729.589844 -0.855469 750.902344 -0.90625 C 769.058594 -0.949219 787.214844 -0.964844 805.367188 -0.945312 C 814.625 -0.9375 823.878906 -0.941406 833.132812 -0.980469 C 841.625 -1.015625 850.117188 -1.015625 858.605469 -0.984375 C 861.660156 -0.976562 864.714844 -0.988281 867.769531 -1.011719 C 894.023438 -1.203125 918.867188 2.925781 942.375 15.25 C 943.691406 15.929688 945.011719 16.605469 946.367188 17.304688 C 983.847656 37.417969 1007.457031 71.464844 1020.109375 111.304688 C 1022.992188 121.511719 1024.253906 130.511719 1024.269531 141.140625 C 1024.273438 142.441406 1024.277344 143.738281 1024.28125 145.078125 C 1024.296875 149.4375 1024.296875 153.796875 1024.292969 158.15625 C 1024.300781 161.3125 1024.308594 164.46875 1024.316406 167.621094 C 1024.335938 176.296875 1024.34375 184.972656 1024.347656 193.648438 C 1024.355469 203.003906 1024.375 212.359375 1024.394531 221.714844 C 1024.433594 244.316406 1024.453125 266.914062 1024.472656 289.515625 C 1024.480469 300.160156 1024.492188 310.808594 1024.5 321.457031 C 1024.535156 356.863281 1024.5625 392.265625 1024.578125 427.671875 C 1024.582031 436.859375 1024.585938 446.042969 1024.589844 455.230469 C 1024.589844 457.515625 1024.59375 459.796875 1024.59375 462.152344 C 1024.609375 499.117188 1024.660156 536.085938 1024.726562 573.054688 C 1024.792969 611.023438 1024.828125 648.996094 1024.835938 686.964844 C 1024.839844 708.277344 1024.855469 729.589844 1024.90625 750.902344 C 1024.949219 769.058594 1024.964844 787.214844 1024.945312 805.367188 C 1024.9375 814.625 1024.941406 823.878906 1024.980469 833.132812 C 1025.015625 841.625 1025.015625 850.117188 1024.984375 858.605469 C 1024.976562 861.660156 1024.988281 864.714844 1025.011719 867.769531 C 1025.300781 907.289062 1013.875 941.660156 988 972 C 986.722656 973.65625 985.449219 975.308594 984.132812 977.015625 C 962.773438 1002.773438 928.390625 1018.488281 896 1024 C 891.621094 1024.183594 887.242188 1024.261719 882.859375 1024.269531 C 880.910156 1024.277344 880.910156 1024.277344 878.921875 1024.28125 C 874.5625 1024.296875 870.203125 1024.296875 865.84375 1024.292969 C 862.6875 1024.300781 859.53125 1024.308594 856.378906 1024.316406 C 847.703125 1024.335938 839.027344 1024.34375 830.351562 1024.347656 C 820.996094 1024.355469 811.640625 1024.375 802.285156 1024.394531 C 779.683594 1024.433594 757.085938 1024.453125 734.484375 1024.472656 C 723.839844 1024.480469 713.191406 1024.492188 702.542969 1024.5 C 667.136719 1024.535156 631.734375 1024.5625 596.328125 1024.578125 C 587.140625 1024.582031 577.957031 1024.585938 568.769531 1024.589844 C 566.484375 1024.589844 564.203125 1024.59375 561.847656 1024.59375 C 524.882812 1024.609375 487.914062 1024.660156 450.945312 1024.726562 C 412.976562 1024.792969 375.003906 1024.828125 337.035156 1024.835938 C 315.722656 1024.839844 294.410156 1024.855469 273.097656 1024.90625 C 254.941406 1024.949219 236.785156 1024.964844 218.632812 1024.945312 C 209.375 1024.9375 200.121094 1024.941406 190.867188 1024.980469 C 182.375 1025.015625 173.882812 1025.015625 165.394531 1024.984375 C 162.339844 1024.976562 159.285156 1024.988281 156.230469 1025.011719 C 116.710938 1025.300781 82.339844 1013.875 52 988 C 50.347656 986.730469 48.695312 985.457031 46.992188 984.148438 C 21.40625 962.886719 5.390625 928.414062 0 896 C -0.183594 891.621094 -0.261719 887.242188 -0.269531 882.859375 C -0.273438 881.558594 -0.277344 880.261719 -0.28125 878.921875 C -0.296875 874.5625 -0.296875 870.203125 -0.292969 865.84375 C -0.300781 862.6875 -0.308594 859.53125 -0.316406 856.378906 C -0.335938 847.703125 -0.34375 839.027344 -0.347656 830.351562 C -0.355469 820.996094 -0.375 811.640625 -0.394531 802.285156 C -0.433594 779.683594 -0.453125 757.085938 -0.472656 734.484375 C -0.480469 723.839844 -0.492188 713.191406 -0.5 702.542969 C -0.535156 667.136719 -0.5625 631.734375 -0.578125 596.328125 C -0.582031 587.140625 -0.585938 577.957031 -0.589844 568.769531 C -0.589844 566.484375 -0.59375 564.203125 -0.59375 561.847656 C -0.609375 524.882812 -0.660156 487.914062 -0.726562 450.945312 C -0.792969 412.976562 -0.828125 375.003906 -0.835938 337.035156 C -0.839844 315.722656 -0.855469 294.410156 -0.90625 273.097656 C -0.949219 254.941406 -0.964844 236.785156 -0.945312 218.632812 C -0.9375 209.375 -0.941406 200.121094 -0.980469 190.867188 C -1.015625 182.375 -1.015625 173.882812 -0.984375 165.394531 C -0.976562 162.339844 -0.988281 159.285156 -1.011719 156.230469 C -1.203125 129.976562 2.925781 105.132812 15.25 81.625 C 15.929688 80.308594 16.605469 78.988281 17.304688 77.632812 C 37.417969 40.152344 71.464844 16.542969 111.304688 3.890625 C 121.511719 1.007812 130.511719 -0.253906 141.140625 -0.269531 Z M 141.140625 -0.269531 "/>
<path style=" stroke:none;fill-rule:nonzero;fill:rgb(99.607843%,99.607843%,99.607843%);fill-opacity:1;" d="M 410 248 C 413.539062 252.054688 413.539062 252.054688 416 256 C 414.527344 256.46875 413.050781 256.9375 411.53125 257.421875 C 357.132812 274.957031 305.425781 296.570312 260 332 C 261.984375 330.984375 263.96875 329.96875 266.015625 328.921875 C 310.691406 306.203125 356.328125 289.746094 406 282 C 408.292969 281.636719 410.585938 281.273438 412.949219 280.898438 C 522.023438 264.261719 647 268.035156 746.28125 320.992188 C 751.21875 324.15625 751.21875 324.15625 754 324 C 710.945312 293.199219 659.179688 271.246094 608 258 C 608 252 608 252 612 248 C 664.925781 239.421875 732.449219 275.601562 776.5 301.375 C 777.738281 302.085938 778.980469 302.800781 780.257812 303.535156 C 794.558594 312.117188 800.382812 323.785156 807.25 338.375 C 808.113281 340.210938 808.980469 342.042969 809.871094 343.933594 C 853.445312 438.078125 880.289062 542.320312 886 646 C 886.132812 647.945312 886.265625 649.890625 886.402344 651.894531 C 888.796875 689.160156 888.796875 689.160156 879.25 701.5 C 876.246094 704.417969 873.160156 707.253906 870 710 C 868.503906 711.617188 867.007812 713.238281 865.46875 714.90625 C 824.675781 758.9375 764.949219 780.558594 706 784 C 703.578125 784.246094 701.152344 784.488281 698.65625 784.742188 C 689.929688 783.769531 686.527344 779.863281 681.25 773.375 C 680.328125 772.300781 679.402344 771.226562 678.449219 770.117188 C 676.542969 767.882812 674.65625 765.636719 672.785156 763.371094 C 670.09375 760.113281 667.351562 756.914062 664.585938 753.71875 C 652 738.894531 652 738.894531 652 732 C 654.082031 731.34375 656.167969 730.683594 658.3125 730.007812 C 699.300781 716.605469 732.507812 695.636719 760 662 C 759.027344 662.769531 758.050781 663.542969 757.046875 664.335938 C 712.125 696.949219 658.816406 716.191406 604.125 724.25 C 601.945312 724.585938 599.765625 724.925781 597.519531 725.273438 C 536.242188 734.519531 468.648438 735.371094 408 722 C 406.011719 721.570312 404.023438 721.144531 401.976562 720.703125 C 354.378906 710.125 307.007812 692.648438 270 660 C 292.660156 694.226562 327.398438 713.070312 364.230469 728.363281 C 368.234375 730.101562 372.113281 732.015625 376 734 C 373.320312 740.011719 370.402344 743.996094 365.625 748.5 C 359.277344 754.652344 353.457031 761.082031 347.742188 767.820312 C 346.507812 769.199219 345.273438 770.578125 344 772 C 343.164062 773.042969 342.332031 774.085938 341.46875 775.164062 C 335.699219 781.824219 333.328125 783.851562 324.234375 784.875 C 321.398438 784.652344 318.570312 784.359375 315.75 784 C 313.496094 783.785156 313.496094 783.785156 311.195312 783.566406 C 306.785156 783.117188 302.394531 782.578125 298 782 C 294.78125 781.609375 294.78125 781.609375 291.5 781.210938 C 235.503906 773.070312 185.832031 746.222656 148 704 C 147.089844 703.035156 146.175781 702.070312 145.234375 701.074219 C 136.355469 690.546875 136.605469 680.589844 137 667.25 C 137.035156 665.054688 137.070312 662.859375 137.109375 660.597656 C 137.65625 638.976562 140.054688 617.695312 143.121094 596.308594 C 143.984375 590.101562 144.742188 583.886719 145.476562 577.664062 C 154.574219 504.65625 177.46875 362.191406 234.414062 309.949219 C 239.429688 306.25 244.605469 303.128906 250 300 C 252.21875 298.632812 254.433594 297.261719 256.71875 295.851562 C 289.476562 276.074219 324.585938 262.449219 361.75 253.75 C 364.257812 253.160156 366.761719 252.570312 369.34375 251.960938 C 399.324219 245.355469 399.324219 245.355469 410 248 Z M 410 248 "/>
<path style=" stroke:none;fill-rule:nonzero;fill:rgb(45.09804%,54.11765%,85.490197%);fill-opacity:1;" d="M 660 498 C 673.582031 506.714844 684.289062 522.324219 688.875 537.875 C 693.285156 561.796875 688.851562 581.75 676 602 C 674.925781 603.691406 673.855469 605.382812 672.75 607.125 C 659.78125 620.4375 642.304688 628.441406 623.75 629 C 605.023438 628.742188 589.886719 620.132812 576 608 C 563.007812 592.613281 556.761719 575.097656 557.578125 554.992188 C 559.277344 534.878906 565.066406 518.734375 579.84375 504.226562 C 583.757812 501.117188 587.683594 498.519531 592 496 C 593.351562 495.175781 594.707031 494.355469 596.101562 493.507812 C 617.460938 482.222656 639.625 486.953125 660 498 Z M 660 498 "/>
<path style=" stroke:none;fill-rule:nonzero;fill:rgb(45.09804%,54.11765%,85.490197%);fill-opacity:1;" d="M 428 498 C 441.582031 506.714844 452.289062 522.324219 456.875 537.875 C 461.285156 561.796875 456.851562 581.75 444 602 C 442.925781 603.691406 441.855469 605.382812 440.75 607.125 C 427.78125 620.4375 410.304688 628.441406 391.75 629 C 373.023438 628.742188 357.886719 620.132812 344 608 C 331.007812 592.613281 324.761719 575.097656 325.578125 554.992188 C 327.277344 534.878906 333.066406 518.734375 347.84375 504.226562 C 351.757812 501.117188 355.683594 498.519531 360 496 C 361.351562 495.175781 362.707031 494.355469 364.101562 493.507812 C 385.460938 482.222656 407.625 486.953125 428 498 Z M 428 498 "/>
<path style=" stroke:none;fill-rule:nonzero;fill:rgb(52.549022%,60.392159%,87.450981%);fill-opacity:1;" d="M 284 312 C 285.320312 312.660156 286.640625 313.320312 288 314 C 288 315.980469 288 317.960938 288 320 C 284.132812 322.015625 280.253906 324.011719 276.375 326 C 273.136719 327.671875 273.136719 327.671875 269.835938 329.375 C 264 332 264 332 258 332 C 266.578125 325.398438 275.160156 318.800781 284 312 Z M 284 312 "/>
<path style=" stroke:none;fill-rule:nonzero;fill:rgb(51.372552%,59.215689%,87.058824%);fill-opacity:1;" d="M 732 310 C 739.246094 312.652344 745.269531 315.886719 751.625 320.25 C 753.207031 321.328125 754.785156 322.40625 756.414062 323.515625 C 757.597656 324.335938 758.78125 325.15625 760 326 C 758.019531 326.988281 758.019531 326.988281 756 328 C 751.433594 325.847656 747.128906 323.609375 742.75 321.125 C 741.527344 320.449219 740.304688 319.773438 739.046875 319.074219 C 736.023438 317.398438 733.011719 315.699219 730 314 C 730.660156 312.679688 731.320312 311.359375 732 310 Z M 732 310 "/>
</g>
</svg>
