<?xml version="1.0" encoding="UTF-8"?>
<svg version="1.1" xmlns="http://www.w3.org/2000/svg" width="512" height="512">
<path d="M0 0 C2.9597432 -0.00071817 5.91948198 -0.00286674 8.87922406 -0.00549722 C19.26214057 -0.01470821 29.64504437 -0.01883758 40.02796483 -0.01804566 C49.61345798 -0.01744643 59.19889459 -0.02797894 68.78437346 -0.04378933 C77.09093218 -0.05698811 85.3974727 -0.06222444 93.70404178 -0.06159025 C98.63096998 -0.0613388 103.55784781 -0.06398948 108.48476529 -0.0747683 C165.1150676 -0.18986335 220.98969908 1.44176212 263.90565038 43.16725707 C264.46470067 43.69859252 265.02375096 44.22992797 265.59974217 44.77736449 C269.8612832 48.90348879 273.44801202 53.24572762 276.84315038 58.10475707 C277.35893651 58.84202025 277.87472264 59.57928344 278.40613866 60.33888793 C283.36906918 67.59448498 287.40026529 75.1142912 290.90565038 83.16725707 C291.18102635 83.79921996 291.45640233 84.43118285 291.74012303 85.08229613 C295.14802395 93.09774483 297.5991544 101.27152633 299.65565038 109.72975707 C299.8544077 110.54339721 300.05316503 111.35703734 300.2579453 112.19533324 C303.11071426 124.59564616 304.25087098 137.29026881 305.01404881 149.9673059 C305.0559734 150.65961543 305.09789799 151.35192496 305.14109302 152.06521356 C306.22988129 170.52530053 306.19987193 188.99253664 306.17430139 207.47833395 C306.16911867 212.42492128 306.17396569 217.37150246 306.17707372 222.3180902 C306.18067758 230.61035563 306.17600876 238.90258504 306.16639256 247.19484496 C306.15550419 256.69198042 306.15905107 266.18902997 306.17004538 275.68616337 C306.17920881 283.94201372 306.18036022 292.19783868 306.17516804 300.4536925 C306.17209882 305.34019429 306.17149574 310.22665613 306.17824101 315.11315513 C306.24542121 371.6267459 304.53483905 427.35035973 262.90565038 470.16725707 C262.1086472 471.00583251 262.1086472 471.00583251 261.29554296 471.86134887 C257.16941866 476.12288989 252.82717983 479.70961872 247.96815038 483.10475707 C247.23088719 483.6205432 246.49362401 484.13632934 245.73401952 484.66774535 C238.47842247 489.63067587 230.95861624 493.66187198 222.90565038 497.16725707 C221.95770604 497.58032104 221.95770604 497.58032104 220.99061131 498.00172973 C183.04322523 514.13569013 140.23803991 512.3289872 99.81130075 512.33451414 C96.85155755 512.33523231 93.89181878 512.33738088 90.93207669 512.34001136 C80.54916018 512.34922235 70.16625638 512.35335172 59.78333592 512.3525598 C50.19784277 512.35196057 40.61240617 512.36249308 31.02692729 512.37830347 C22.72036858 512.39150225 14.41382806 512.39673858 6.10725898 512.3961044 C1.18033078 512.39585295 -3.74654706 512.39850362 -8.67346454 512.40928245 C-65.30376685 512.52437749 -121.17839832 510.89275202 -164.09434962 469.16725707 C-164.65339992 468.63592162 -165.21245021 468.10458617 -165.78844142 467.55714965 C-170.04998244 463.43102535 -173.63671127 459.08878652 -177.03184962 454.22975707 C-177.54763576 453.49249389 -178.06342189 452.7552307 -178.5948379 451.99562621 C-183.55776842 444.74002916 -187.58896453 437.22022294 -191.09434962 429.16725707 C-191.50741359 428.21931273 -191.50741359 428.21931273 -191.92882228 427.25221801 C-195.3367232 419.23676931 -197.78785365 411.06298781 -199.84434962 402.60475707 C-200.04310695 401.79111693 -200.24186427 400.9774768 -200.44664454 400.1391809 C-203.29941351 387.73886798 -204.43957023 375.04424533 -205.20274806 362.36720824 C-205.24467265 361.67489871 -205.28659723 360.98258919 -205.32979226 360.26930058 C-206.41858054 341.80921361 -206.38857117 323.3419775 -206.36300063 304.85618019 C-206.35781792 299.90959287 -206.36266494 294.96301168 -206.36577296 290.01642394 C-206.36937682 281.72415851 -206.364708 273.4319291 -206.35509181 265.13966918 C-206.34420344 255.64253372 -206.34775031 246.14548418 -206.35874462 236.64835078 C-206.36790806 228.39250042 -206.36905947 220.13667546 -206.36386728 211.88082165 C-206.36079807 206.99431985 -206.36019499 202.10785801 -206.36694026 197.22135901 C-206.43412045 140.70776825 -204.7235383 84.98415441 -163.09434962 42.16725707 C-162.29734645 41.32868163 -162.29734645 41.32868163 -161.4842422 40.47316527 C-157.3581179 36.21162425 -153.01587907 32.62489543 -148.15684962 29.22975707 C-147.41958644 28.71397094 -146.68232326 28.1981848 -145.92271876 27.66676879 C-138.66712171 22.70383827 -131.14731549 18.67264216 -123.09434962 15.16725707 C-122.46238673 14.89188109 -121.83042384 14.61650512 -121.17931056 14.33278441 C-83.23192448 -1.80117599 -40.42673915 0.00552694 0 0 Z M-53.40977931 48.07838988 C-54.7271672 48.15845149 -56.04455508 48.2385131 -57.40186381 48.32100081 C-79.3177091 49.80026551 -102.13418448 53.62631238 -120.09434962 67.16725707 C-121.01474025 67.84530395 -121.93513087 68.52335082 -122.88341212 69.22194457 C-142.99639437 84.79149832 -153.29518144 107.89844392 -156.77680659 132.64051414 C-159.62095052 155.27184246 -159.39526863 178.10114971 -159.36300063 200.8629241 C-159.35783156 205.67333956 -159.36266197 210.48374855 -159.36577296 215.29416442 C-159.36938335 223.36833123 -159.36469326 231.44246113 -159.35509181 239.5166223 C-159.34423158 248.75400163 -159.34772718 257.99129243 -159.35874462 267.22866958 C-159.3679244 275.25686727 -159.3690509 283.28503885 -159.36386728 291.31324011 C-159.36080301 296.06521415 -159.36017972 300.81714712 -159.36694026 305.56911826 C-159.38899336 323.57078818 -159.27766416 341.5252441 -158.18321681 359.4985559 C-158.1031552 360.81498674 -158.0230936 362.13141759 -157.94060588 363.48774028 C-156.46005034 385.39908043 -152.63236188 408.21098139 -139.09434962 426.16725707 C-138.41630275 427.0876477 -137.73825587 428.00803832 -137.03966212 428.95631957 C-121.47010837 449.06930182 -98.36316277 459.36808889 -73.62109256 462.84971404 C-50.98976424 465.69385796 -28.16045698 465.46817608 -5.39868259 465.43590808 C-0.58826713 465.43073901 4.22214185 465.43556942 9.03255773 465.43868041 C17.10672454 465.44229079 25.18085444 465.4376007 33.25501561 465.42799926 C42.49239493 465.41713902 51.72968574 465.42063462 60.96706289 465.43165207 C68.99526058 465.44083185 77.02343216 465.44195835 85.05163342 465.43677473 C89.80360746 465.43371046 94.55554043 465.43308716 99.30751157 465.43984771 C117.30918148 465.46190081 135.26363741 465.35057161 153.23694921 464.25612426 C155.21159547 464.13603185 155.21159547 464.13603185 157.22613358 464.01351333 C179.13747373 462.53295779 201.9493747 458.70526933 219.90565038 445.16725707 C220.826041 444.4892102 221.74643163 443.81116332 222.69471288 443.11256957 C242.80769512 427.54301582 253.10648219 404.43607022 256.58810735 379.69400001 C259.43225127 357.06267168 259.20656939 334.23336443 259.17430139 311.47159004 C259.16913232 306.66117458 259.17396273 301.8507656 259.17707372 297.04034972 C259.1806841 288.96618291 259.17599401 280.89205301 259.16639256 272.81789184 C259.15553233 263.58051252 259.15902793 254.34322171 259.17004538 245.10584456 C259.17922516 237.07764687 259.18035165 229.04947529 259.17516804 221.02127403 C259.17210377 216.26929999 259.17148047 211.51736702 259.17824101 206.76539588 C259.20029411 188.76372596 259.08896492 170.80927004 257.99451756 152.83595824 C257.91445596 151.5195274 257.83439435 150.20309655 257.75190663 148.84677386 C256.27135109 126.93543371 252.44366264 104.12353275 238.90565038 86.16725707 C237.88858006 84.78667113 237.88858006 84.78667113 236.85096288 83.37819457 C221.31433999 63.3077529 198.18934045 52.93501443 173.47932744 49.4848001 C150.53970984 46.65448554 127.37811822 46.86565468 104.3105185 46.89860606 C99.5308054 46.90377991 94.75109876 46.89894354 89.97138524 46.89583373 C81.95027313 46.89222501 73.9291982 46.89690931 65.90809178 46.90651488 C56.73260746 46.9173784 47.55721223 46.91387644 38.38173008 46.90286207 C30.40446718 46.89368178 22.42723054 46.89255593 14.44996405 46.89773941 C9.72930395 46.90080295 5.00868518 46.90142907 0.288028 46.89466643 C-17.63665211 46.87255446 -35.51335815 46.98910079 -53.40977931 48.07838988 Z " fill="#FEFEFE" transform="translate(206.09434962272644,-0.16725707054138184)"/>
<path d="M0 0 C1.01835937 0.36867187 2.03671875 0.73734375 3.0859375 1.1171875 C35.91276936 13.87828836 61.34299364 39.91321749 75.75 71.78125 C88.64591101 101.7160845 89.46167002 136.22146356 79 167 C78.49726562 168.53914063 78.49726562 168.53914063 77.984375 170.109375 C72.1098049 186.7402002 62.67663057 200.91902803 51 214 C49.75089844 215.40185547 49.75089844 215.40185547 48.4765625 216.83203125 C24.84055802 241.76369711 -8.14306546 254.29132001 -41.890625 256.22265625 C-57.83233345 256.5937689 -73.90738114 254.13000345 -89 249 C-90.53914063 248.49726562 -90.53914063 248.49726562 -92.109375 247.984375 C-108.7402002 242.1098049 -122.91902803 232.67663057 -136 221 C-137.40185547 219.75089844 -137.40185547 219.75089844 -138.83203125 218.4765625 C-163.75846832 194.84551507 -176.27430597 161.88175446 -178.22265625 128.14453125 C-178.62453603 111.00348482 -175.9488842 94.06554953 -170 78 C-169.63132813 76.98164063 -169.26265625 75.96328125 -168.8828125 74.9140625 C-163.71638993 61.62388583 -156.48865559 49.62729426 -147 39 C-146.26910156 38.14921875 -145.53820312 37.2984375 -144.78515625 36.421875 C-109.11935228 -4.44649792 -50.82311236 -18.81920125 0 0 Z M-82 47 C-82.72445312 47.30679688 -83.44890625 47.61359375 -84.1953125 47.9296875 C-103.03453853 56.54844273 -117.99963026 73.74280666 -125.375 92.875 C-133.82119801 116.33476906 -132.49218533 140.44641688 -122 163 C-117.79459782 170.99732357 -112.213025 177.49591437 -106 184 C-105.45988281 184.61488281 -104.91976562 185.22976563 -104.36328125 185.86328125 C-90.5750242 200.97132109 -69.29298002 207.7108851 -49.4453125 209.28125 C-35.55435287 209.6592353 -22.6716057 206.5712885 -10 201 C-9.28714844 200.70480469 -8.57429688 200.40960938 -7.83984375 200.10546875 C11.0075704 191.62993754 26.03176498 174.20718306 33.375 155.125 C41.50876622 132.52816711 40.65771013 109.92725381 31 88 C30.69320312 87.27554688 30.38640625 86.55109375 30.0703125 85.8046875 C21.45155727 66.96546147 4.25719334 52.00036974 -14.875 44.625 C-37.47076227 36.48986952 -60.0737491 37.3427316 -82 47 Z " fill="#FEFEFE" transform="translate(302,132)"/>
<path d="M0 0 C6.88721981 5.35527168 11.4128001 13.60455863 12.7421875 22.22265625 C13.18789167 31.71958362 10.30824136 40.45194744 3.98828125 47.57421875 C-2.62944349 53.85771496 -9.64793605 56.76580411 -18.7578125 57.09765625 C-27.93252775 56.76344218 -34.85015219 53.82942462 -41.50390625 47.51171875 C-47.30214067 41.18402418 -50.26623952 34.49657122 -50.25390625 25.86328125 C-49.5579773 15.14301398 -46.4337043 7.81167842 -38.2578125 0.59765625 C-25.9478806 -7.17218083 -12.58461439 -7.81639545 0 0 Z " fill="#FEFEFE" transform="translate(411.2578125,93.40234375)"/>
</svg>
