<?xml version="1.0" encoding="UTF-8"?>
<svg version="1.1" xmlns="http://www.w3.org/2000/svg" width="512" height="512">
<path d="M0 0 C0.76961463 -0.00350607 1.53922926 -0.00701215 2.33216554 -0.01062447 C4.90822152 -0.01992024 7.48405054 -0.01501987 10.06011581 -0.01015663 C11.92685402 -0.01389381 13.79359065 -0.0184956 15.66032481 -0.02388728 C20.7882035 -0.03612433 25.91601697 -0.03585597 31.04390693 -0.03349853 C36.57507188 -0.03309054 42.10621587 -0.04412778 47.63737106 -0.05361366 C58.47334581 -0.07022851 69.3092988 -0.07572343 80.14528522 -0.07683842 C88.95318956 -0.07778866 97.76108673 -0.08189777 106.5689888 -0.08823967 C127.47642707 -0.10298719 148.38386146 -0.11528926 169.29130554 -0.11424255 C169.95980172 -0.1142114 170.62829791 -0.11418024 171.31705155 -0.11414814 C174.705185 -0.11398192 178.09331845 -0.11378384 181.4814519 -0.11357872 C182.49077508 -0.11351889 182.49077508 -0.11351889 183.52048862 -0.11345784 C184.88122022 -0.11337697 186.24195182 -0.11329337 187.60268342 -0.11320706 C208.77079301 -0.1119817 229.93883852 -0.1269925 251.10692978 -0.15435219 C274.89546123 -0.1850862 298.68395681 -0.20225855 322.47251296 -0.20042574 C335.06567022 -0.19976167 347.65875521 -0.20526183 360.2518959 -0.22678185 C370.97386783 -0.24498682 381.69573472 -0.24934654 392.4177154 -0.235763 C397.88742005 -0.22922996 403.35692314 -0.22912847 408.82660866 -0.2464695 C413.83674006 -0.26219009 418.84650991 -0.25934672 423.85663244 -0.24190123 C425.66616441 -0.23882914 427.47572329 -0.24247161 429.28522351 -0.25362138 C443.16687668 -0.33347163 454.77635235 1.0595812 465.09472275 11.25726891 C474.33148708 22.31308967 474.53209917 33.77053289 474.4824028 47.47662926 C474.48657802 49.34652034 474.49205658 51.21640888 474.49872261 53.08629274 C474.51317092 58.21354665 474.50893439 63.34063973 474.5015558 68.46790242 C474.496825 74.00172575 474.50933314 79.53551424 474.51957321 85.0693264 C474.5367676 95.90570531 474.53759997 106.74202626 474.53236031 117.57841527 C474.52831896 126.38533833 474.52976175 135.19224425 474.53510857 143.99916649 C474.53585699 145.25258722 474.53660541 146.50600794 474.53737651 147.79741111 C474.53890798 150.34370673 474.54044633 152.89000234 474.54199148 155.43629795 C474.55181965 172.53144643 474.55598452 189.62658912 474.54836559 206.72173882 C474.54791983 207.7240607 474.54791983 207.7240607 474.54746507 208.74663151 C474.54501621 214.17277099 474.54240459 219.59891039 474.53978093 225.02504978 C474.52967699 246.19346935 474.53803792 267.36180961 474.56127548 288.53021812 C474.58735034 312.32167856 474.60014607 336.11309775 474.59308773 359.90457678 C474.58959281 372.4987538 474.59184574 385.09286568 474.60933876 397.6870327 C474.62404366 408.40682311 474.62471842 419.12650251 474.60726785 429.84629071 C474.59874188 435.31575746 474.59664745 440.78502574 474.6119194 446.25448227 C474.62572843 451.26196876 474.62105199 456.26908602 474.60168017 461.27655095 C474.59790827 463.08733074 474.60087628 464.89813983 474.61129182 466.7088936 C474.70437636 484.13157003 474.70437636 484.13157003 470.09472275 491.25726891 C469.63920184 491.97209356 469.18368093 492.68691821 468.71435636 493.42340422 C462.03774644 503.4289425 451.54849043 509.39739848 440.09472275 512.25726891 C437.41546558 512.43706576 434.84380986 512.53008505 432.1682415 512.51453781 C431.39633931 512.51804389 430.62443711 512.52154996 429.82914394 512.52516228 C427.24532615 512.53445837 424.66173462 512.52955761 422.07790756 512.52469444 C420.20561918 512.52843159 418.33333236 512.53303337 416.46104801 512.53842509 C411.31790657 512.55066226 406.17483016 512.55039377 401.03167748 512.54803634 C395.48419075 512.54762836 389.93672491 512.55866543 384.38924789 512.56815147 C373.52185968 512.58476586 362.65449315 512.5902612 351.7870933 512.59137623 C342.95485827 512.5923264 334.12263041 512.59643511 325.29039764 512.60277748 C304.32805376 512.61752428 283.36571375 512.62982711 262.40336418 512.62878036 C261.7331347 512.62874921 261.06290522 512.62871805 260.37236576 512.62868595 C256.97541983 512.62851974 253.57847391 512.62832165 250.18152799 512.62811653 C249.50689053 512.62807664 248.83225308 512.62803675 248.13717207 512.62799565 C246.77289151 512.62791478 245.40861095 512.62783118 244.04433039 512.62774487 C222.81582051 512.62651922 201.58737451 512.64153598 180.3588829 512.66889 C156.50517929 512.69961413 132.65151731 512.71679699 108.7977885 512.71496356 C96.16892462 512.7142992 83.54013279 512.71981175 70.9112854 512.74131966 C60.16034411 512.75951194 49.40950755 512.76389474 38.65855755 512.75030081 C33.17289879 512.74376164 27.68744106 512.74368839 22.2018013 512.76100731 C17.17943854 512.77670064 12.15743682 512.77391254 7.13508306 512.75643905 C5.31885726 512.75336094 3.50260476 512.75703194 1.68641044 512.7681592 C-10.88027728 512.84004824 -19.77767015 511.7856596 -29.3154335 503.00336266 C-31.20752241 500.92531907 -32.11538554 498.94290072 -32.90527725 496.25726891 C-33.56527725 495.92726891 -34.22527725 495.59726891 -34.90527725 495.25726891 C-39.31954971 486.63045886 -38.32997273 476.22887009 -38.29968643 466.82394981 C-38.30457927 464.94295891 -38.31077089 463.06197101 -38.31814432 461.18098819 C-38.33451685 456.02758599 -38.33223137 450.87433703 -38.32676935 445.72091794 C-38.32409588 440.15705767 -38.33863687 434.59323795 -38.35086441 429.02939415 C-38.37190659 418.13533326 -38.37645997 407.2413256 -38.37467653 396.34724678 C-38.37336838 387.49174582 -38.37717572 378.63626146 -38.38460159 369.78076363 C-38.38670081 367.22897589 -38.38879841 364.67718816 -38.39089441 362.12540042 C-38.39193794 360.85526992 -38.39298147 359.58513942 -38.39405662 358.27652012 C-38.40758702 341.08189616 -38.41518439 323.88727836 -38.41073227 306.69264984 C-38.41056031 306.02062834 -38.41038836 305.34860685 -38.41021119 304.65622106 C-38.40932234 301.25035839 -38.40837753 297.84449575 -38.40741318 294.4386331 C-38.40722215 293.76225038 -38.40703112 293.08586766 -38.4068343 292.38898849 C-38.4064472 291.02117955 -38.40605688 289.65337062 -38.40566332 288.28556169 C-38.39969341 267.0028116 -38.4151336 245.72017026 -38.44726944 224.43744469 C-38.4833665 200.51117052 -38.50263268 176.58496476 -38.49773073 152.65865505 C-38.49548651 139.99563284 -38.50072264 127.33271843 -38.52562332 114.66971779 C-38.54664046 103.89000139 -38.55022411 93.11045193 -38.53132373 82.33072866 C-38.5221689 76.83248726 -38.52101555 71.33455707 -38.54167938 65.83633995 C-38.56040131 60.79906408 -38.55587188 55.76235408 -38.53313357 50.72509967 C-38.52895097 48.90689209 -38.53313632 47.08864103 -38.54672951 45.27047946 C-38.63695067 32.3164903 -37.41927405 20.93402538 -27.99121475 11.07367516 C-19.57629172 3.74607364 -11.2286379 -0.0654489 0 0 Z M52.09472275 69.25726891 C51.38187119 69.65430016 50.66901962 70.05133141 49.9345665 70.46039391 C37.96820315 77.52837674 31.43586885 87.23383059 27.09472275 100.25726891 C25.71353273 115.1626906 27.72625048 127.26744795 37.09472275 139.25726891 C37.57296494 139.87344078 38.05120712 140.48961266 38.5439415 141.12445641 C46.04572826 149.62774115 58.11544806 154.35094959 69.1845665 155.46820641 C80.20897523 155.98653304 90.19882824 152.58828872 99.09472275 146.25726891 C100.14659775 145.51476891 101.19847275 144.77226891 102.28222275 144.00726891 C111.70900524 134.78997046 116.78145017 123.27529571 117.34472275 110.13226891 C117.16163551 99.22026956 113.34487625 88.13267698 106.0283165 79.94476891 C104.27131557 78.03809082 104.27131557 78.03809082 102.09472275 78.25726891 C102.09472275 77.59726891 102.09472275 76.93726891 102.09472275 76.25726891 C101.43472275 76.25726891 100.77472275 76.25726891 100.09472275 76.25726891 C100.09472275 75.59726891 100.09472275 74.93726891 100.09472275 74.25726891 C98.15924035 72.7560641 98.15924035 72.7560641 95.65722275 71.31976891 C94.83351181 70.81574547 94.00980087 70.31172203 93.161129 69.79242516 C86.05427221 66.2344701 79.59416437 64.71874888 71.65722275 64.81976891 C70.8253746 64.82661705 69.99352646 64.83346519 69.13647079 64.84052086 C62.77722874 65.00667387 57.64902377 66.02338475 52.09472275 69.25726891 Z M235.77441025 219.52289391 C232.88714398 222.46908398 230.398319 225.48589861 228.083004 228.89398766 C227.75687119 229.34387047 227.43073837 229.79375328 227.09472275 230.25726891 C226.76472275 230.25726891 226.43472275 230.25726891 226.09472275 230.25726891 C225.76472275 219.03726891 225.43472275 207.81726891 225.09472275 196.25726891 C202.98472275 196.25726891 180.87472275 196.25726891 158.09472275 196.25726891 C158.09472275 276.11726891 158.09472275 355.97726891 158.09472275 438.25726891 C181.85472275 438.25726891 205.61472275 438.25726891 230.09472275 438.25726891 C230.120504 429.09332359 230.14628525 419.92937828 230.17284775 410.48773766 C230.19804176 404.64982623 230.22423426 398.81194694 230.254879 392.97406578 C230.30323708 383.72691706 230.34775131 374.47987512 230.36571884 365.2326107 C230.37882952 358.49470389 230.40602983 351.7570172 230.44933581 345.01923448 C230.47174196 341.45996212 230.48764622 337.90095908 230.4866066 334.34160995 C230.48770775 294.36707701 230.48770775 294.36707701 241.09472275 277.25726891 C241.54589462 276.51219078 241.9970665 275.76711266 242.46191025 274.99945641 C249.02277987 265.25081963 259.26119127 260.57044323 270.317379 257.67523766 C283.6900134 255.66275962 297.02713287 256.22201116 308.40722275 264.00726891 C320.46599735 273.87577628 325.1715551 289.29302094 327.09472275 304.25726891 C327.78812661 313.86565127 327.70494734 323.51217898 327.70222759 333.14085817 C327.70539843 336.8484296 327.7311013 340.55585079 327.75420761 344.2633419 C327.79445676 351.25385263 327.81503429 358.24427083 327.82818151 365.23487937 C327.84715727 374.7025655 327.89725745 384.17008681 327.94542503 393.63766098 C328.02028985 408.51085487 328.05420676 423.38384982 328.09472275 438.25726891 C351.85472275 438.25726891 375.61472275 438.25726891 400.09472275 438.25726891 C400.1822658 410.71235984 400.1822658 410.71235984 400.24120712 383.16742516 C400.25894043 371.91884779 400.27967531 360.67033831 400.32104111 349.42181969 C400.35116605 341.22602011 400.37034988 333.03027613 400.37698823 324.83442271 C400.38086186 320.50430699 400.38981042 316.17435018 400.41191292 311.84428596 C400.88602547 261.14233462 400.88602547 261.14233462 378.09472275 217.25726891 C377.56491806 216.64883141 377.03511337 216.04039391 376.489254 215.41351891 C368.78929458 207.07342035 358.67056265 201.99908941 348.09472275 198.25726891 C347.04542587 197.88601891 345.996129 197.51476891 344.91503525 197.13226891 C308.31759715 185.84598414 263.78149861 192.74157997 235.77441025 219.52289391 Z M36.09472275 196.25726891 C36.09472275 276.11726891 36.09472275 355.97726891 36.09472275 438.25726891 C59.85472275 438.25726891 83.61472275 438.25726891 108.09472275 438.25726891 C108.09472275 358.39726891 108.09472275 278.53726891 108.09472275 196.25726891 C84.33472275 196.25726891 60.57472275 196.25726891 36.09472275 196.25726891 Z " fill="#FEFEFE" transform="translate(37.905277252197266,-0.25726890563964844)"/>
</svg>
