<?xml version="1.0" encoding="UTF-8"?>
<svg xmlns="http://www.w3.org/2000/svg" xmlns:xlink="http://www.w3.org/1999/xlink" width="1024px" height="1024px" viewBox="0 0 1024 1024" version="1.1">
<g id="surface1">
<path style=" stroke:none;fill-rule:nonzero;fill:rgb(0.784314%,45.490196%,70.19608%);fill-opacity:1;" d="M 71.441406 1.996094 C 73.375 1.992188 73.375 1.992188 75.347656 1.984375 C 76.777344 1.988281 78.207031 1.988281 79.636719 1.988281 C 81.164062 1.988281 82.691406 1.984375 84.214844 1.984375 C 88.425781 1.976562 92.640625 1.976562 96.851562 1.976562 C 101.425781 1.976562 106 1.96875 110.574219 1.964844 C 119.660156 1.953125 128.742188 1.949219 137.824219 1.949219 C 148.699219 1.945312 159.574219 1.933594 170.453125 1.925781 C 196.742188 1.902344 223.03125 1.894531 249.320312 1.882812 C 261.757812 1.878906 274.191406 1.875 286.628906 1.867188 C 329.191406 1.847656 371.75 1.832031 414.3125 1.824219 C 416.984375 1.824219 419.65625 1.824219 422.332031 1.824219 C 424.320312 1.824219 424.320312 1.824219 426.347656 1.824219 C 433.0625 1.820312 439.777344 1.820312 446.492188 1.820312 C 448.488281 1.816406 448.488281 1.816406 450.527344 1.816406 C 493.734375 1.808594 536.941406 1.785156 580.148438 1.75 C 625.820312 1.714844 671.492188 1.691406 717.164062 1.6875 C 722.179688 1.6875 727.191406 1.6875 732.207031 1.6875 C 733.441406 1.6875 734.675781 1.6875 735.945312 1.6875 C 755.816406 1.683594 775.6875 1.667969 795.554688 1.644531 C 815.527344 1.625 835.5 1.617188 855.472656 1.628906 C 867.335938 1.632812 879.203125 1.628906 891.066406 1.605469 C 898.996094 1.589844 906.925781 1.589844 914.855469 1.605469 C 919.371094 1.613281 923.886719 1.613281 928.402344 1.59375 C 932.519531 1.578125 936.632812 1.582031 940.75 1.601562 C 942.910156 1.605469 945.074219 1.589844 947.234375 1.574219 C 960.460938 1.671875 973.117188 4.46875 984.667969 11.132812 C 985.464844 11.589844 986.265625 12.046875 987.089844 12.519531 C 1005.019531 23.246094 1014.84375 38.980469 1020.894531 58.578125 C 1023.429688 68.699219 1023.085938 79.355469 1023.070312 89.710938 C 1023.070312 91.207031 1023.074219 92.707031 1023.078125 94.207031 C 1023.082031 98.3125 1023.078125 102.417969 1023.078125 106.523438 C 1023.074219 110.996094 1023.078125 115.46875 1023.082031 119.941406 C 1023.089844 127.777344 1023.089844 135.609375 1023.089844 143.445312 C 1023.085938 155.09375 1023.09375 166.746094 1023.097656 178.394531 C 1023.109375 200.414062 1023.109375 222.433594 1023.113281 244.453125 C 1023.113281 261.457031 1023.113281 278.460938 1023.117188 295.464844 C 1023.117188 300.359375 1023.121094 305.253906 1023.121094 310.148438 C 1023.121094 311.363281 1023.121094 312.582031 1023.121094 313.835938 C 1023.128906 348.058594 1023.132812 382.285156 1023.132812 416.511719 C 1023.132812 417.800781 1023.132812 419.09375 1023.132812 420.421875 C 1023.132812 426.960938 1023.132812 433.5 1023.132812 440.039062 C 1023.132812 441.988281 1023.132812 441.988281 1023.132812 443.976562 C 1023.132812 446.601562 1023.132812 449.230469 1023.132812 451.855469 C 1023.128906 492.726562 1023.136719 533.59375 1023.152344 574.460938 C 1023.167969 620.378906 1023.179688 666.292969 1023.175781 712.210938 C 1023.175781 717.105469 1023.175781 722.003906 1023.175781 726.898438 C 1023.175781 728.707031 1023.175781 728.707031 1023.175781 730.550781 C 1023.175781 749.953125 1023.183594 769.351562 1023.191406 788.75 C 1023.203125 808.246094 1023.203125 827.742188 1023.195312 847.238281 C 1023.191406 858.816406 1023.195312 870.398438 1023.203125 881.980469 C 1023.210938 889.71875 1023.210938 897.457031 1023.203125 905.199219 C 1023.199219 909.605469 1023.195312 914.011719 1023.207031 918.417969 C 1023.214844 922.4375 1023.210938 926.453125 1023.203125 930.472656 C 1023.199219 932.582031 1023.207031 934.6875 1023.214844 936.796875 C 1023.117188 961.664062 1017.390625 983.519531 999.464844 1001.601562 C 998.871094 1002.257812 998.277344 1002.910156 997.667969 1003.585938 C 992.855469 1008.429688 987.082031 1011.207031 981 1014.132812 C 980.164062 1014.535156 979.332031 1014.9375 978.472656 1015.351562 C 966.851562 1020.710938 956.332031 1022.339844 943.570312 1022.273438 C 942.039062 1022.277344 940.503906 1022.28125 938.96875 1022.289062 C 934.765625 1022.300781 930.5625 1022.292969 926.359375 1022.285156 C 921.78125 1022.277344 917.207031 1022.289062 912.628906 1022.296875 C 904.609375 1022.3125 896.589844 1022.3125 888.574219 1022.304688 C 876.648438 1022.296875 864.722656 1022.304688 852.800781 1022.316406 C 831.5 1022.335938 810.203125 1022.339844 788.90625 1022.335938 C 770.265625 1022.328125 751.625 1022.332031 732.984375 1022.335938 C 730.484375 1022.335938 727.984375 1022.339844 725.484375 1022.339844 C 721.71875 1022.339844 717.949219 1022.339844 714.183594 1022.34375 C 679.15625 1022.355469 644.132812 1022.359375 609.105469 1022.351562 C 607.125 1022.351562 607.125 1022.351562 605.105469 1022.347656 C 594.382812 1022.347656 583.65625 1022.34375 572.933594 1022.339844 C 531.105469 1022.332031 489.277344 1022.339844 447.449219 1022.363281 C 400.457031 1022.390625 353.464844 1022.40625 306.472656 1022.398438 C 301.464844 1022.398438 296.453125 1022.398438 291.445312 1022.394531 C 290.210938 1022.394531 288.976562 1022.394531 287.707031 1022.394531 C 269.078125 1022.394531 250.453125 1022.402344 231.828125 1022.414062 C 210.644531 1022.429688 189.464844 1022.433594 168.28125 1022.414062 C 156.429688 1022.402344 144.574219 1022.40625 132.722656 1022.421875 C 124.800781 1022.433594 116.882812 1022.429688 108.960938 1022.414062 C 104.449219 1022.402344 99.9375 1022.402344 95.429688 1022.417969 C 91.316406 1022.433594 87.207031 1022.425781 83.097656 1022.40625 C 80.9375 1022.402344 78.773438 1022.414062 76.613281 1022.433594 C 64.21875 1022.332031 52.527344 1019.445312 41.464844 1013.800781 C 40.40625 1013.261719 40.40625 1013.261719 39.324219 1012.714844 C 21.707031 1003.296875 10.726562 986.972656 4.191406 968.507812 C 0.792969 956.992188 0.910156 945.132812 0.929688 933.222656 C 0.929688 931.726562 0.925781 930.226562 0.921875 928.726562 C 0.917969 924.621094 0.921875 920.515625 0.921875 916.410156 C 0.925781 911.9375 0.921875 907.464844 0.917969 902.992188 C 0.910156 895.15625 0.910156 887.324219 0.910156 879.488281 C 0.914062 867.835938 0.90625 856.1875 0.902344 844.535156 C 0.890625 822.519531 0.890625 800.5 0.886719 778.480469 C 0.886719 761.476562 0.886719 744.472656 0.882812 727.46875 C 0.882812 722.574219 0.878906 717.679688 0.878906 712.785156 C 0.878906 711.570312 0.878906 710.351562 0.878906 709.097656 C 0.871094 674.875 0.867188 640.648438 0.867188 606.421875 C 0.867188 605.132812 0.867188 603.839844 0.867188 602.511719 C 0.867188 595.972656 0.867188 589.433594 0.867188 582.894531 C 0.867188 581.59375 0.867188 580.296875 0.867188 578.957031 C 0.867188 576.332031 0.867188 573.703125 0.867188 571.078125 C 0.871094 530.207031 0.863281 489.339844 0.847656 448.472656 C 0.832031 402.554688 0.820312 356.636719 0.824219 310.722656 C 0.824219 305.824219 0.824219 300.929688 0.824219 296.035156 C 0.824219 294.828125 0.824219 293.621094 0.824219 292.382812 C 0.824219 272.980469 0.816406 253.582031 0.808594 234.183594 C 0.796875 214.6875 0.796875 195.191406 0.804688 175.695312 C 0.808594 164.113281 0.804688 152.535156 0.796875 140.953125 C 0.789062 133.214844 0.789062 125.472656 0.796875 117.734375 C 0.800781 113.328125 0.804688 108.921875 0.792969 104.515625 C 0.785156 100.496094 0.789062 96.480469 0.796875 92.460938 C 0.800781 90.351562 0.792969 88.246094 0.785156 86.136719 C 0.878906 62.46875 6.066406 40.765625 22.933594 23.199219 C 35.417969 10.875 53.78125 2.007812 71.441406 1.996094 Z M 71.441406 1.996094 "/>
<path style=" stroke:none;fill-rule:nonzero;fill:rgb(99.607843%,99.607843%,99.607843%);fill-opacity:1;" d="M 691.265625 373 C 692.28125 373 693.296875 373.003906 694.34375 373.003906 C 708.257812 373.042969 721.917969 373.355469 735.613281 376.039062 C 738.339844 376.574219 741.074219 377.042969 743.8125 377.507812 C 753.925781 379.296875 762.941406 381.738281 772.265625 386.132812 C 773.609375 386.695312 774.957031 387.246094 776.308594 387.796875 C 792.28125 394.347656 805.355469 403.394531 818.132812 414.933594 C 818.921875 415.644531 819.710938 416.355469 820.519531 417.085938 C 836.613281 432.40625 846.234375 452.175781 854.398438 472.535156 C 854.765625 473.398438 855.132812 474.261719 855.511719 475.148438 C 857.910156 481.53125 859.242188 488.304688 860.800781 494.933594 C 861.019531 495.863281 861.238281 496.789062 861.464844 497.746094 C 869.382812 531.65625 871.808594 565.480469 871.707031 600.238281 C 871.707031 603.207031 871.707031 606.175781 871.710938 609.140625 C 871.710938 615.46875 871.703125 621.796875 871.691406 628.125 C 871.675781 637.273438 871.667969 646.425781 871.667969 655.574219 C 871.660156 670.425781 871.648438 685.277344 871.628906 700.128906 C 871.609375 714.535156 871.59375 728.941406 871.582031 743.347656 C 871.582031 744.25 871.582031 745.148438 871.582031 746.078125 C 871.578125 753.125 871.574219 760.167969 871.570312 767.214844 C 871.550781 801.609375 871.507812 836.003906 871.464844 870.398438 C 821.128906 870.398438 770.792969 870.398438 718.933594 870.398438 C 718.867188 850.273438 718.804688 830.144531 718.738281 809.410156 C 718.695312 796.671875 718.652344 783.9375 718.605469 771.199219 C 718.582031 764.507812 718.558594 757.820312 718.535156 751.128906 C 718.535156 750.289062 718.53125 749.453125 718.527344 748.589844 C 718.480469 735.0625 718.4375 721.535156 718.394531 708.007812 C 718.351562 694.117188 718.304688 680.230469 718.253906 666.34375 C 718.222656 657.777344 718.195312 649.210938 718.171875 640.644531 C 718.152344 634.070312 718.128906 627.496094 718.101562 620.921875 C 718.089844 618.230469 718.082031 615.539062 718.078125 612.84375 C 718.066406 609.164062 718.050781 605.480469 718.035156 601.800781 C 718.035156 600.207031 718.035156 600.207031 718.03125 598.585938 C 718.402344 587.527344 718.402344 587.527344 715.734375 577.066406 C 715.445312 574.871094 715.183594 572.667969 714.933594 570.464844 C 712.269531 551.5625 704.109375 531.4375 688.503906 519.546875 C 674.246094 509.992188 660.34375 506.265625 643.386719 506.269531 C 641.101562 506.265625 638.816406 506.226562 636.527344 506.1875 C 615.238281 506.015625 593.941406 512.324219 578.332031 527.332031 C 573.378906 532.527344 568.691406 538.191406 566.398438 545.066406 C 565.695312 545.066406 564.992188 545.066406 564.265625 545.066406 C 564.179688 545.75 564.089844 546.429688 564 547.132812 C 563.300781 549.984375 562.445312 552.105469 561.191406 554.730469 C 558.832031 559.96875 557.402344 565.210938 556.132812 570.800781 C 555.90625 571.777344 555.679688 572.757812 555.445312 573.765625 C 553.605469 581.933594 552.234375 590.054688 551.464844 598.398438 C 551.335938 599.78125 551.335938 599.78125 551.203125 601.1875 C 550.167969 613.625 550.214844 626.054688 550.179688 638.527344 C 550.171875 641.054688 550.160156 643.578125 550.148438 646.101562 C 550.121094 652.914062 550.097656 659.726562 550.078125 666.542969 C 550.054688 672.953125 550.03125 679.363281 550.003906 685.773438 C 549.953125 698.460938 549.90625 711.148438 549.863281 723.835938 C 549.820312 736.148438 549.777344 748.464844 549.730469 760.777344 C 549.726562 761.546875 549.722656 762.316406 549.722656 763.105469 C 549.695312 769.792969 549.671875 776.480469 549.644531 783.164062 C 549.535156 811.886719 549.433594 840.609375 549.332031 869.332031 C 500.054688 869.332031 450.773438 869.332031 400 869.332031 C 400 709.523438 400 549.71875 400 385.066406 C 447.519531 385.066406 495.039062 385.066406 544 385.066406 C 544 406.890625 544 428.714844 544 451.199219 C 545.054688 451.199219 546.113281 451.199219 547.199219 451.199219 C 547.601562 449.8125 547.601562 449.8125 548.011719 448.398438 C 557.28125 423.132812 586.449219 402.476562 609.066406 390.398438 C 611.542969 389.308594 614.035156 388.242188 616.535156 387.199219 C 617.71875 386.683594 618.902344 386.167969 620.125 385.636719 C 628.976562 381.921875 637.671875 379.355469 647.054688 377.347656 C 650.503906 376.722656 650.503906 376.722656 652.800781 375.464844 C 665.554688 373.023438 678.328125 372.949219 691.265625 373 Z M 691.265625 373 "/>
<path style=" stroke:none;fill-rule:nonzero;fill:rgb(98.823529%,99.215686%,99.607843%);fill-opacity:1;" d="M 153.601562 384 C 203.230469 384 252.863281 384 304 384 C 305.800781 385.800781 305.199219 388.023438 305.207031 390.425781 C 305.203125 391.203125 305.199219 391.976562 305.199219 392.777344 C 305.199219 393.597656 305.199219 394.417969 305.203125 395.265625 C 305.203125 398.050781 305.199219 400.835938 305.195312 403.621094 C 305.195312 405.621094 305.195312 407.625 305.199219 409.628906 C 305.199219 415.160156 305.195312 420.691406 305.191406 426.222656 C 305.1875 432.175781 305.1875 438.128906 305.1875 444.085938 C 305.1875 454.410156 305.183594 464.734375 305.179688 475.0625 C 305.171875 489.988281 305.167969 504.917969 305.167969 519.847656 C 305.164062 544.066406 305.15625 568.285156 305.148438 592.503906 C 305.136719 616.035156 305.128906 639.570312 305.125 663.101562 C 305.125 663.828125 305.125 664.550781 305.125 665.296875 C 305.125 672.578125 305.121094 679.859375 305.121094 687.140625 C 305.109375 748.226562 305.089844 809.3125 305.066406 870.398438 C 255.082031 870.398438 205.097656 870.398438 153.601562 870.398438 C 153.601562 709.886719 153.601562 549.375 153.601562 384 Z M 153.601562 384 "/>
<path style=" stroke:none;fill-rule:nonzero;fill:rgb(99.215686%,99.607843%,99.607843%);fill-opacity:1;" d="M 280.535156 158.933594 C 282.328125 160.335938 284.105469 161.757812 285.867188 163.199219 C 286.972656 164.046875 286.972656 164.046875 288.105469 164.914062 C 304.71875 178.289062 314.507812 198.789062 316.800781 219.734375 C 318.179688 236.554688 316.269531 250.875 310.398438 266.667969 C 309.695312 266.667969 308.992188 266.667969 308.265625 266.667969 C 308.152344 267.433594 308.042969 268.203125 307.925781 268.996094 C 304.203125 284.421875 287.777344 297.671875 275.199219 306.132812 C 274.441406 306.65625 273.679688 307.179688 272.894531 307.722656 C 255.257812 318.695312 229.25 321.054688 209.335938 316.554688 C 206 315.6875 202.742188 314.683594 199.464844 313.601562 C 198 313.136719 198 313.136719 196.5 312.667969 C 179.464844 306.628906 165.425781 293.300781 155.734375 278.398438 C 155.074219 277.425781 154.417969 276.453125 153.738281 275.449219 C 142 256.976562 138.542969 232.378906 143.132812 211.066406 C 144.972656 204.460938 147.484375 198.199219 150.398438 192 C 150.847656 191.023438 151.292969 190.046875 151.753906 189.042969 C 162.121094 168.191406 181.917969 153.761719 203.472656 146.449219 C 229.554688 138.207031 258.238281 143.042969 280.535156 158.933594 Z M 280.535156 158.933594 "/>
<path style=" stroke:none;fill-rule:nonzero;fill:rgb(82.745099%,90.588236%,94.509804%);fill-opacity:1;" d="M 581.332031 408.535156 C 582.039062 408.886719 582.742188 409.238281 583.464844 409.601562 C 576.777344 416.289062 570.089844 422.976562 563.199219 429.867188 C 562.496094 429.515625 561.792969 429.164062 561.066406 428.800781 C 567.484375 421.617188 573.839844 414.632812 581.332031 408.535156 Z M 581.332031 408.535156 "/>
</g>
</svg>
